<svg xmlns="http://www.w3.org/2000/svg" viewBox="17.65 95.83 360 70.94" role="img">
  <path fill="#e64725" d="M210.9,158.02h-5.91c-2.13-1.65-7.03-16.27-8.02-16.79-.6-.32-.64.43-.75.76-.6,1.82-.81,3.76-1.66,5.6-7.95,17.18-35.36,12.12-29.18-9.33,3.31-11.48,14.98-19.46,15.92-31.78.4-.57,6.22-.59,6.9.02.29.26,1.47,2.91,1.78,3.56,7.16,15.12,13.29,30.76,20.55,45.84l.37,2.11ZM181.91,108.8c-1.53,11.55-13.49,21.02-12.59,33,.71,9.51,11.55,14.71,19.26,8.58,6.12-4.86,7.36-11.16,4.46-18.18-2.63-6.39-5.88-13.5-8.9-19.72-.59-1.21-1.19-2.88-2.23-3.68Z"/>
  <path fill="#e64725" d="M261.92,142.27c-.78.84-1.36.48-1.7,2.3-3.02,16.38,29.33,15.36,30.82,3.35,1.81-14.49-20.76-12.39-28.98-17.21-8.07-4.73-8.58-14.56-1.56-20.58,1.79-1.54,4.21-2.56,4.21-2.56,6.46-2.58,9.48-3.16,18.4-.95,2.13.53,6.26,2.73,6.57,2.95,3.6,2.52,6.74,4.77,5.37,9.93-.63,2.36-4.63,5.9-7.1,3.95,1.52-4.16,2.18-7.84-1.53-10.99-5.03-4.27-11.6-4.92-17.91-3.48-6.08,1.39-12.06,7.98-7.39,13.91,6.54,8.3,30.24,1.48,34.01,17.5,4.41,18.76-25.26,22.58-36.34,14.2-6.44-4.87-4.96-12.1,3.06-13.73.68.41.52.93.07,1.41Z"/>
  <path fill="#e64725" d="M217.39,158.02h-5.72s.57-52.28.57-52.28h7.44c.02.35.13.69.4.92,11.09,9.32,19.66,21.51,28.9,32.55.3.36.4.98,1.04.87-.15-11.54-2-22.94-3.62-34.35h5.72s-.2,51.89-.2,51.89c-1.02.16-1.97-4.23-2.41-5.22-5.12-11.56-16-24.47-24.67-33.71-1.2-1.28-9.11-9.4-9.93-9.4-2.48,0-1.78,6.23-1.73,8.09.14,6.25.63,12.79,1.16,19.06.62,7.24,1.7,14.44,3.05,21.56Z"/>
  <path fill="#e64725" d="M130.91,112.75c-2.06,2.04-4.21,5.57-5.28,8.27-.7,1.78-1.87,3.96-.38,5.72,1.09.02,1.5-.89,2.54-1.27,7.52-2.71,15,6.16,22.45,2.99.77-.33,2.78-2.69,2.68-1.15-.52,8.11-8.55,7.84-14.49,5.71-4.41-1.58-8.23-7.03-13.57-3.24-2.99,2.12-.25,10.67.95,13.57,6.81,16.44,25.17,17.31,35.69,4,.86-.16.53.38.57.94.07.91.16,2.99-.07,3.75-.5,1.65-9.07,5-10.98,5.43-13.57,3.04-28.18-3.48-32.55-17.08-6.53-20.33,11.9-39.24,32.45-33.6,4.77,1.31,14.06,7.11,10.93,13.05-.65,1.23-4.45,3.53-5.7,3.45-1.04-.07.46-1.86.56-2.49,2.2-14.15-16.59-17.16-25.79-8.05Z"/>
  <path fill="#e64725" d="M304.77,136.46c1.01,8.54,8.7,19.1,17.75,20.03,8.55.87,14.91-3.1,20.41-9.15l-.18,5.35c-12.38,8.42-29.95,7.35-39.31-4.96-11.5-15.12-3.01-37.17,15.22-41.26,6.95-1.56,15.17-.54,20.81,4.09,5.62,4.6,5.54,11.9-2.64,12.37,3.98-8.88-4.41-16.34-13.16-15.63-7.46.6-17.48,8.89-17.76,16.61-.12,3.24,3.47,1.18,5.19.97,6.31-.79,13.43,6.55,20.38,3.59,1.15-.49,1.5-1.59,2.67-1.71-.19,8.79-9.45,8.67-15.64,5.91-2.4-1.07-4.14-3.46-6.77-3.91-2.35-.4-4.73,0-6.97.67.19,2.25-.26,4.86,0,7.06Z"/>
  <path fill="#e64725" d="M74.18,112.35c3.5,4.31,1.03,9.63-4.46,9.8.77-4.13,1.59-5.8-1.16-9.34-9.1-11.72-24.4-4.24-29.17,7.44-3.62,8.84-2.52,22.27,3.99,29.58,8.43,9.45,26.02,7.4,32.07-3.63l.76.19c0,.26.01.52.01.77,0,.84-.43,4.93-.75,5.36-.56.77-5.79,3.28-6.98,3.7-11.03,3.95-23.76,1.29-31.58-7.56-17.26-19.54,3.91-50.83,28.52-41.88,2.07.75,7.4,3.92,8.74,5.57Z"/>
  <path fill="#e64725" d="M78.5,158.4l-.39-51.3c-.05-1.63,6.03-1.05,6.33-.62.15,11.47.36,23.07.18,34.57-.01.9-.32,11.18-.4,15.44,8.07.24,16.21-.4,24.12-2.02,2.35-.48,4.86-1.83,7.2-1.63.55.4.71,4.92-.22,5.56h-36.82Z"/>
  <text x="350" y="120" font-family="Helvetica, Arial, sans-serif" font-size="22" fill="#e64725">&#174;</text>
</svg>
